<svg width="23" height="23" viewBox="0 0 23 23" fill="none" xmlns="http://www.w3.org/2000/svg">
<path d="M3.34125 0.0331211C2.51983 0.171278 1.77687 0.558119 1.17695 1.1568C0.733939 1.60351 0.544736 1.87983 0.300156 2.45549C-0.0182596 3.18772 0.000199252 2.71799 0.000199252 11.0535C0.000199252 19.2094 -0.00903018 18.887 0.254009 19.5778C0.433983 20.0614 0.710866 20.4943 1.10312 20.9041C1.6615 21.489 2.26141 21.839 3.05514 22.0509L3.43816 22.1522L10.7986 22.1706C16.0363 22.1798 18.2929 22.1706 18.616 22.1337C19.5758 22.0232 20.3511 21.6594 21.0156 21.0009C21.5094 20.5127 21.8001 20.0384 22.0401 19.3245L22.1739 18.9331V11.1042V3.27522L22.0678 2.91141C21.6801 1.57128 20.6741 0.562725 19.3128 0.134436L18.8975 0.00548935L11.237 0.000883102C7.0238 -0.00372124 3.47047 0.0100937 3.34125 0.0331211ZM8.25593 8.3364C9.81109 9.8285 11.0709 11.0673 11.0663 11.0857C11.0571 11.1042 9.77879 12.343 8.22363 13.8397L5.39019 16.5614L4.65645 15.8568C4.25497 15.4745 3.92271 15.1338 3.92732 15.1107C3.92732 15.0831 4.86411 14.1713 6.00395 13.0844C7.13917 11.993 8.07134 11.0903 8.07595 11.0765C8.07595 11.0581 7.14378 10.1463 5.99933 9.05021C4.8595 7.95416 3.92271 7.04693 3.92271 7.03311C3.92271 6.97324 5.33481 5.60088 5.38096 5.61009C5.41326 5.6193 6.70538 6.84429 8.25593 8.3364ZM18.3206 15.7094V16.5614H15.6441H12.9676V15.7094V14.8574H15.6441H18.3206V15.7094Z" fill="white"/>
</svg>
